<svg viewBox="0 0 24 24" fill="none" xmlns="http://www.w3.org/2000/svg">
<path d="M8.8666 14.3499C9.56139 14.3497 10.2365 14.5805 10.7859 15.0059C11.3352 15.4313 11.7276 16.0272 11.9013 16.6999H20.6167C20.8124 16.6996 21.0012 16.7725 21.1459 16.9044C21.2905 17.0363 21.3806 17.2175 21.3983 17.4125C21.416 17.6074 21.36 17.802 21.2414 17.9577C21.1229 18.1135 20.9503 18.2192 20.7577 18.2541L20.6167 18.2666L11.9013 18.2682C11.7281 18.9415 11.336 19.5381 10.7866 19.9641C10.2373 20.3901 9.5618 20.6213 8.8666 20.6213C8.17141 20.6213 7.49595 20.3901 6.94656 19.9641C6.39718 19.5381 6.00506 18.9415 5.83195 18.2682L3.38323 18.2666C3.18748 18.267 2.99869 18.194 2.85404 18.0622C2.70938 17.9303 2.61934 17.749 2.60166 17.5541C2.58397 17.3591 2.63991 17.1646 2.75847 17.0088C2.87703 16.8531 3.04961 16.7473 3.24223 16.7125L3.38323 16.6999H5.83195C6.00565 16.0272 6.39801 15.4313 6.94734 15.0059C7.49667 14.5805 8.17182 14.3497 8.8666 14.3499ZM8.8666 15.9166C8.4511 15.9166 8.05261 16.0817 7.7588 16.3755C7.46499 16.6693 7.29993 17.0678 7.29993 17.4833C7.29993 17.8988 7.46499 18.2973 7.7588 18.5911C8.05261 18.8849 8.4511 19.05 8.8666 19.05C9.28211 19.05 9.6806 18.8849 9.97441 18.5911C10.2682 18.2973 10.4333 17.8988 10.4333 17.4833C10.4333 17.0678 10.2682 16.6693 9.97441 16.3755C9.6806 16.0817 9.28211 15.9166 8.8666 15.9166ZM15.1333 3.38318C15.8281 3.383 16.5032 3.61376 17.0526 4.03916C17.6019 4.46455 17.9943 5.06047 18.168 5.7332H20.6167C20.8124 5.73284 21.0012 5.80578 21.1459 5.93766C21.2905 6.06954 21.3806 6.2508 21.3983 6.44575C21.416 6.6407 21.36 6.83521 21.2414 6.99097C21.1229 7.14674 20.9503 7.25246 20.7577 7.28734L20.6167 7.29987L18.168 7.30144C17.9949 7.97474 17.6027 8.57135 17.0534 8.99735C16.504 9.42335 15.8285 9.65455 15.1333 9.65455C14.4381 9.65455 13.7627 9.42335 13.2133 8.99735C12.6639 8.57135 12.2718 7.97474 12.0987 7.30144L3.38323 7.29987C3.18748 7.30023 2.99869 7.22729 2.85404 7.09541C2.70938 6.96353 2.61934 6.78226 2.60166 6.58731C2.58397 6.39236 2.63991 6.19786 2.75847 6.04209C2.87703 5.88633 3.04961 5.7806 3.24223 5.74573L3.38323 5.7332H12.0987C12.2724 5.06047 12.6647 4.46455 13.2141 4.03916C13.7634 3.61376 14.4385 3.383 15.1333 3.38318ZM15.1333 4.94986C14.7178 4.94986 14.3193 5.11492 14.0255 5.40873C13.7317 5.70253 13.5666 6.10103 13.5666 6.51653C13.5666 6.93204 13.7317 7.33053 14.0255 7.62434C14.3193 7.91815 14.7178 8.08321 15.1333 8.08321C15.5488 8.08321 15.9473 7.91815 16.2411 7.62434C16.5349 7.33053 16.7 6.93204 16.7 6.51653C16.7 6.10103 16.5349 5.70253 16.2411 5.40873C15.9473 5.11492 15.5488 4.94986 15.1333 4.94986Z" fill="currentColor"/>
</svg>
