<svg width="24" height="24" viewBox="0 0 24 24" fill="none" xmlns="http://www.w3.org/2000/svg">
<path d="M7.84617 12C7.84617 11.2353 7.22625 10.6154 6.46155 10.6154C5.69685 10.6154 5.07694 11.2353 5.07694 12C5.07694 12.7647 5.69685 13.3846 6.46155 13.3846C7.22625 13.3846 7.84617 12.7647 7.84617 12ZM9.23078 12C9.23078 13.5294 7.99096 14.7692 6.46155 14.7692C4.93215 14.7692 3.69232 13.5294 3.69232 12C3.69232 10.4706 4.93215 9.23077 6.46155 9.23077C7.99096 9.23077 9.23078 10.4706 9.23078 12Z" fill="currentColor"/>
<path d="M18.9231 5.76923C18.9231 5.00453 18.3032 4.38462 17.5385 4.38462C16.7738 4.38462 16.1538 5.00453 16.1538 5.76923C16.1538 6.53393 16.7738 7.15385 17.5385 7.15385C18.3032 7.15385 18.9231 6.53393 18.9231 5.76923ZM20.3077 5.76923C20.3077 7.29863 19.0679 8.53846 17.5385 8.53846C16.0091 8.53846 14.7692 7.29863 14.7692 5.76923C14.7692 4.23983 16.0091 3 17.5385 3C19.0679 3 20.3077 4.23983 20.3077 5.76923Z" fill="currentColor"/>
<path d="M18.9231 18.2308C18.9231 17.4661 18.3032 16.8462 17.5385 16.8462C16.7738 16.8462 16.1538 17.4661 16.1538 18.2308C16.1538 18.9955 16.7738 19.6154 17.5385 19.6154C18.3032 19.6154 18.9231 18.9955 18.9231 18.2308ZM20.3077 18.2308C20.3077 19.7602 19.0679 21 17.5385 21C16.0091 21 14.7692 19.7602 14.7692 18.2308C14.7692 16.7014 16.0091 15.4615 17.5385 15.4615C19.0679 15.4615 20.3077 16.7014 20.3077 18.2308Z" fill="currentColor"/>
<path d="M7.66807 12.6787C7.85551 12.3455 8.27762 12.2273 8.61086 12.4147L16.0679 16.6093C16.4011 16.7967 16.5193 17.2188 16.3319 17.5521C16.1444 17.8853 15.7223 18.0035 15.3891 17.8161L7.93208 13.6215C7.59883 13.4341 7.48063 13.012 7.66807 12.6787ZM15.3891 6.18396C15.7223 5.99652 16.1444 6.11473 16.3319 6.44797C16.5193 6.78122 16.4012 7.20332 16.0679 7.39077L8.61086 11.5853C8.27762 11.7727 7.85551 11.6545 7.66807 11.3213C7.48062 10.988 7.59883 10.566 7.93208 10.3785L15.3891 6.18396Z" fill="currentColor"/>
</svg>
