<svg viewBox="0 0 24 24" fill="none" xmlns="http://www.w3.org/2000/svg">
<path d="M12 11.6826C13.1935 11.6826 14.3381 11.2085 15.182 10.3646C16.0259 9.52068 16.5 8.37609 16.5 7.18262C16.5 5.98914 16.0259 4.84455 15.182 4.00064C14.3381 3.15672 13.1935 2.68262 12 2.68262C10.8065 2.68262 9.66193 3.15672 8.81802 4.00064C7.97411 4.84455 7.5 5.98914 7.5 7.18262C7.5 8.37609 7.97411 9.52068 8.81802 10.3646C9.66193 11.2085 10.8065 11.6826 12 11.6826ZM15 7.18262C15 7.97827 14.6839 8.74133 14.1213 9.30394C13.5587 9.86655 12.7956 10.1826 12 10.1826C11.2044 10.1826 10.4413 9.86655 9.87868 9.30394C9.31607 8.74133 9 7.97827 9 7.18262C9 6.38697 9.31607 5.62391 9.87868 5.0613C10.4413 4.49869 11.2044 4.18262 12 4.18262C12.7956 4.18262 13.5587 4.49869 14.1213 5.0613C14.6839 5.62391 15 6.38697 15 7.18262ZM21 19.1826C21 20.6826 19.5 20.6826 19.5 20.6826H4.5C4.5 20.6826 3 20.6826 3 19.1826C3 17.6826 4.5 13.1826 12 13.1826C19.5 13.1826 21 17.6826 21 19.1826ZM19.5 19.1766C19.4985 18.8076 19.269 17.6976 18.252 16.6806C17.274 15.7026 15.4335 14.6826 12 14.6826C8.5665 14.6826 6.726 15.7026 5.748 16.6806C4.731 17.6976 4.503 18.8076 4.5 19.1766H19.5Z" fill="currentColor"/>
</svg>
