<svg viewBox="0 0 24 24" fill="none" xmlns="http://www.w3.org/2000/svg">
<path d="M15.4057 18.5769C14.927 20.5469 13.27 21.4122 11.8339 21.3386C10.4163 21.2649 9.01699 20.2891 8.61194 18.5769H8.39101C7.19428 18.5769 5.97913 18.5769 4.7824 18.5769C4.17483 18.5769 3.71454 18.3376 3.45679 17.8036C3.19903 17.2697 3.29108 16.7726 3.65931 16.2939C4.08277 15.7231 4.48782 15.134 4.87445 14.5448C5.04016 14.3055 5.09539 14.0293 5.09539 13.7347C5.09539 12.1329 5.05857 10.5496 5.09539 8.9478C5.16903 6.00199 6.54988 3.84787 9.21952 2.63273C13.1227 0.828421 17.7992 3.20348 18.7197 7.40125C18.8302 7.93518 18.8854 8.48751 18.8854 9.02144C18.9039 10.568 18.8854 12.1329 18.8854 13.6795C18.8854 14.0477 18.9775 14.3791 19.1984 14.6921C19.6035 15.2629 20.0085 15.8336 20.4136 16.4228C20.7266 16.8831 20.7634 17.3618 20.524 17.8589C20.2847 18.356 19.8612 18.6137 19.3089 18.6137C18.0753 18.6137 16.8418 18.6137 15.6266 18.6137C15.553 18.6137 15.4794 18.6137 15.4057 18.6137V18.5769ZM19.2905 17.1776C18.867 16.5701 18.4804 15.9993 18.0753 15.4286C17.7071 14.8946 17.523 14.3239 17.523 13.6611C17.523 12.1145 17.523 10.568 17.523 9.02144C17.523 8.78209 17.523 8.54275 17.4862 8.3034C17.1364 4.93414 13.8039 2.65114 10.5267 3.5717C8.13325 4.23451 6.47624 6.38863 6.45782 8.87415C6.45782 10.4759 6.45782 12.0593 6.45782 13.6611C6.45782 14.3055 6.27371 14.8946 5.90549 15.4102C5.53726 15.9257 5.18745 16.4412 4.81922 16.9751C4.7824 17.0304 4.74557 17.0856 4.69034 17.1592H19.2721L19.2905 17.1776ZM13.9328 18.5769H10.0848C10.269 19.3318 11.1159 19.9393 11.9628 19.9393C12.8465 19.9393 13.7119 19.3686 13.9328 18.5769Z" fill="currentColor"/>
</svg>
