<svg  viewBox="0 0 24 24" fill="none" xmlns="http://www.w3.org/2000/svg">
<g clip-path="url(#clip0_81_43)">
<path d="M11.9265 23.6816C18.0806 23.6816 23.0694 18.649 23.0694 12.4408C23.0694 6.2327 18.0806 1.20001 11.9265 1.20001C5.77252 1.20001 0.783691 6.2327 0.783691 12.4408C0.783691 18.649 5.77252 23.6816 11.9265 23.6816Z" fill="white"/>
<path d="M12.0105 2.24927C6.61556 2.24927 2.24927 6.72507 2.24927 12.2452C2.24927 16.6571 5.04118 20.4082 8.92466 21.7297C9.40747 21.8362 9.5964 21.5165 9.5964 21.2608C9.5964 21.0263 9.57541 20.2377 9.57541 19.4065C6.86746 20.0033 6.30069 18.213 6.30069 18.213C5.85986 17.062 5.20911 16.7637 5.20911 16.7637C4.30646 16.1243 5.2511 16.1243 5.2511 16.1243C6.23771 16.1882 6.76251 17.1473 6.76251 17.1473C7.64416 18.6605 9.05061 18.2343 9.61739 17.9785C9.70136 17.3391 9.95326 16.8915 10.2262 16.6358C8.064 16.4013 5.77589 15.5488 5.77589 11.7124C5.77589 10.6254 6.15374 9.73025 6.7835 9.02691C6.67854 8.77115 6.34267 7.74811 6.88846 6.38406C6.88846 6.38406 7.70714 6.1283 9.57541 7.4071C10.3731 7.19397 11.1918 7.0874 12.0105 7.06609C12.8291 7.06609 13.6688 7.17265 14.4455 7.4071C16.3138 6.10698 17.1325 6.38406 17.1325 6.38406C17.6573 7.74811 17.3214 8.79247 17.2374 9.02691C17.8672 9.73025 18.245 10.6254 18.245 11.7124C18.245 15.5488 15.9569 16.4013 13.7738 16.6358C14.1306 16.9555 14.4455 17.5523 14.4455 18.49C14.4455 19.8328 14.4245 20.8985 14.4245 21.2395C14.4245 21.4952 14.5925 21.8149 15.0963 21.7297C18.9587 20.3869 21.7507 16.6571 21.7507 12.2452C21.7716 6.70376 17.3844 2.24927 12.0105 2.24927Z" fill="#24292F"/>
</g>
<defs>
<clipPath id="clip0_81_43">
<rect width="24" height="23.5102" fill="white" transform="translate(0 0.244904)"/>
</clipPath>
</defs>
</svg>
