<svg viewBox="0 0 24 24" fill="none" xmlns="http://www.w3.org/2000/svg">
<g clip-path="url(#clip0_2033_19)">
<path d="M12 4C10.4178 4 8.87103 4.46919 7.55544 5.34824C6.23985 6.22729 5.21447 7.47672 4.60897 8.93853C4.00347 10.4003 3.84504 12.0089 4.15372 13.5607C4.4624 15.1126 5.22433 16.538 6.34315 17.6568C7.46197 18.7757 8.88743 19.5376 10.4393 19.8463C11.9911 20.155 13.5997 19.9965 15.0615 19.391C16.5233 18.7855 17.7727 17.7602 18.6518 16.4446C19.5308 15.129 20 13.5822 20 12C20 11.5911 19.9644 11.1822 19.9111 10.7911C19.467 11.4139 18.8801 11.9213 18.1997 12.2708C17.5192 12.6203 16.765 12.8018 16 12.8C14.9824 12.8 13.9911 12.4768 13.1691 11.877C12.347 11.2772 11.7368 10.4318 11.4263 9.46276C11.1158 8.49369 11.1211 7.45105 11.4415 6.48521C11.7619 5.51936 12.3808 4.68025 13.2089 4.08889C12.8178 4.03556 12.4089 4 12 4Z" fill="currentColor"/>
</g>
<defs>
<clipPath id="clip0_2033_19">
<rect width="100%" height="100%" fill="white"/>
</clipPath>
</defs>
</svg>
