<svg width="24" height="24" viewBox="0 0 24 24" fill="none" xmlns="http://www.w3.org/2000/svg">
<path fill-rule="evenodd" clip-rule="evenodd" d="M11.9992 1.84125L11.9997 18.4522L6.64235 21.4042C6.53382 21.4639 6.41151 21.4906 6.28923 21.4814C6.16696 21.4721 6.04961 21.4271 5.95045 21.3516C5.8513 21.276 5.77429 21.1729 5.72814 21.0539C5.68199 20.9349 5.66854 20.8047 5.68931 20.6781L6.71242 14.4264L2.3782 9.9994C2.29015 9.90986 2.22783 9.79624 2.19831 9.67144C2.1688 9.54664 2.17327 9.41567 2.21122 9.29341C2.24917 9.17114 2.31908 9.06247 2.41301 8.97975C2.50694 8.89703 2.62113 8.84356 2.7426 8.82543L8.73237 7.91305L11.4102 2.2249C11.4644 2.10973 11.5483 2.01277 11.6524 1.94497C11.7565 1.87718 11.8767 1.84125 11.9992 1.84125Z" fill="currentColor"/>
<path d="M11.9992 1.84125L11.9997 18.4522L17.3579 21.4042C17.4663 21.4638 17.5886 21.4905 17.7107 21.4813C17.8329 21.472 17.9502 21.4271 18.0493 21.3517C18.1484 21.2763 18.2254 21.1733 18.2717 21.0545C18.3179 20.9356 18.3315 20.8056 18.3109 20.679L17.2878 14.4264L21.622 9.9994C21.71 9.90975 21.7723 9.79606 21.8017 9.67123C21.8312 9.5464 21.8267 9.41541 21.7888 9.29312C21.7509 9.17082 21.681 9.0621 21.5871 8.97927C21.4932 8.89645 21.3791 8.84284 21.2576 8.82451L15.2679 7.91305L12.5883 2.2249C12.5341 2.10973 12.4501 2.01277 12.346 1.94497C12.2421 1.87726 12.1217 1.84133 11.9992 1.84125Z" fill="#CCCCCC"/>
</svg>
