<svg viewBox="0 0 24 24" fill="none" xmlns="http://www.w3.org/2000/svg">
<path d="M20.6 10.3C20.2 8.19999 19 6.39999 17.3 5.09999C15.6 3.79999 13.5 3.19999 11.4 3.29999C9.30002 3.39999 7.30002 4.29999 5.80002 5.79999C4.30002 7.29999 3.40002 9.29999 3.30002 11.4C3.20002 13.5 3.80002 15.6 5.10002 17.3C6.40002 19 8.30002 20.1 10.4 20.5C12.4 20.9 14.4 20.6 16.2 19.6L19.9 20.6C20.2 20.7 20.4 20.6 20.6 20.4C20.8 20.2 20.9 19.9 20.8 19.7L19.8 16C20.7 14.3 21 12.3 20.6 10.3Z" fill="currentColor"/>
</svg>
