<svg viewBox="0 0 24 24" fill="none" xmlns="http://www.w3.org/2000/svg">
<path d="M15.9572 5.18617C17.0427 5.24733 18.0604 5.74334 18.7886 6.5661C19.5169 7.38886 19.8966 8.47167 19.845 9.57858C19.845 12.1645 17.655 13.753 15.5534 15.6579C13.479 17.546 12.3617 18.5781 12 18.8163C11.6061 18.5562 10.2303 17.2817 8.44661 15.6579C6.33587 13.7454 4.15495 12.1418 4.15495 9.57858C4.10339 8.47167 4.48311 7.38886 5.21136 6.5661C5.9396 5.74334 6.95734 5.24733 8.04279 5.18617C8.64409 5.16759 9.23983 5.30838 9.77177 5.59477C10.3037 5.88116 10.7536 6.30335 11.0776 6.82006C11.7713 7.80916 11.8869 8.30412 12.0025 8.30412C12.1181 8.30412 12.232 7.80916 12.9191 6.81754C13.2412 6.29843 13.6913 5.87457 14.2244 5.5883C14.7576 5.30202 15.3551 5.16336 15.9572 5.18617ZM15.9572 3.5026C15.2073 3.47813 14.4617 3.62642 13.7758 3.93642C13.09 4.24642 12.4815 4.71015 11.9959 5.29307C11.5106 4.71184 10.9034 4.24919 10.2192 3.93928C9.53499 3.62937 8.7912 3.48014 8.04279 3.5026C6.51909 3.56334 5.08098 4.23662 4.04292 5.37523C3.00487 6.51383 2.45133 8.0251 2.50336 9.57858C2.50336 12.6174 4.60914 14.4836 6.64472 16.2876C6.87842 16.4947 7.1146 16.7034 7.34912 16.9164L8.19722 17.6891C9.12214 18.5863 10.0918 19.4342 11.1024 20.2296C11.3697 20.4061 11.6815 20.5 12 20.5C12.3185 20.5 12.6303 20.4061 12.8976 20.2296C13.9404 19.41 14.9399 18.5347 15.892 17.6075L16.6534 16.9139C16.8953 16.695 17.1406 16.477 17.3842 16.2623C19.3116 14.5577 21.4966 12.6258 21.4966 9.57858C21.5487 8.0251 20.9951 6.51383 19.9571 5.37523C18.919 4.23662 17.4809 3.56334 15.9572 3.5026Z" fill="currentColor" />
</svg>
