<svg viewBox="0 0 24 24" fill="none" xmlns="http://www.w3.org/2000/svg">
<path d="M12.0004 1.84125C12.123 1.84116 12.2432 1.87706 12.3474 1.94487C12.4516 2.01267 12.5356 2.10969 12.5899 2.22493L15.2686 7.91309L21.2592 8.82548C21.3804 8.84407 21.4943 8.89782 21.5879 8.98064C21.6815 9.06346 21.7511 9.17206 21.7889 9.29416C21.8267 9.41627 21.8312 9.54702 21.8018 9.67165C21.7725 9.79628 21.7104 9.90982 21.6227 9.99946L17.2885 14.4264L18.3116 20.6782C18.332 20.8047 18.3184 20.9347 18.2721 21.0535C18.2259 21.1723 18.1489 21.2753 18.0498 21.3507C17.9508 21.4262 17.8336 21.4712 17.7115 21.4806C17.5894 21.4901 17.4671 21.4636 17.3586 21.4042L12.0004 18.4523L6.64215 21.4042C6.5337 21.4639 6.41148 21.4906 6.28931 21.4814C6.16713 21.4721 6.04987 21.4272 5.95075 21.3518C5.85162 21.2764 5.7746 21.1734 5.72837 21.0546C5.68214 20.9357 5.66854 20.8056 5.68911 20.6791L6.71223 14.4264L2.37801 9.99946C2.29003 9.9098 2.22778 9.79611 2.19831 9.67128C2.16883 9.54645 2.17332 9.41547 2.21125 9.29317C2.24918 9.17087 2.31904 9.06215 2.41292 8.97932C2.5068 8.8965 2.62094 8.84289 2.7424 8.82456L8.73218 7.91309L11.4117 2.22493C11.4659 2.10983 11.5498 2.01291 11.6538 1.94511C11.7578 1.87731 11.8779 1.84134 12.0004 1.84125ZM12.0004 4.08549L9.75792 8.84659C9.71073 8.94666 9.64102 9.03321 9.5548 9.09877C9.46858 9.16433 9.36844 9.20694 9.26301 9.22292L4.24817 9.98661L7.87725 13.693C7.95356 13.7709 8.01059 13.8672 8.04341 13.9734C8.07623 14.0796 8.08384 14.1925 8.06558 14.3025L7.20889 19.5363L11.6947 17.0654C11.7889 17.0134 11.8939 16.9863 12.0004 16.9863C12.1069 16.9863 12.2118 17.0134 12.3061 17.0654L16.791 19.5363L15.9352 14.3025C15.9169 14.1925 15.9245 14.0796 15.9573 13.9734C15.9901 13.8672 16.0472 13.7709 16.1235 13.693L19.7526 9.98661L14.7377 9.22384C14.6323 9.20786 14.5322 9.16525 14.4459 9.09969C14.3597 9.03413 14.29 8.94758 14.2428 8.8475L12.0004 4.08549Z" fill="currentColor"/>
</svg>
